<svg width="283" height="61" viewBox="0 0 283 61" fill="none" xmlns="http://www.w3.org/2000/svg">
<path d="M68.78 3C68.78 3.58667 68.736 3.99733 68.648 4.232C67.6507 4.34933 66.9467 4.55467 66.536 4.848C66.1253 5.14133 65.92 5.62533 65.92 6.3V29.004C65.92 31.644 65.304 33.7267 64.072 35.252C62.8693 36.7773 61.036 37.9213 58.572 38.684C58.22 38.1267 58.0293 37.8333 58 37.804C59.9653 36.7187 61.2413 35.516 61.828 34.196C62.444 32.876 62.752 31.1747 62.752 29.092V4.936C61.8427 4.55467 60.8307 4.32 59.716 4.232C59.716 3.67467 59.76 3.264 59.848 3H68.78Z" fill="white"/>
<path d="M88.1805 13.428V27.288C89.4125 27.3467 90.3659 27.376 91.0405 27.376C91.0699 27.6987 91.0845 27.948 91.0845 28.124C91.0845 28.3 91.0845 28.432 91.0845 28.52C89.4125 29.3413 87.5205 29.8693 85.4085 30.104C85.2032 29.0187 85.0712 27.5227 85.0125 25.616C83.2232 28.8133 80.9645 30.412 78.2365 30.412C76.5645 30.412 75.1565 29.8253 74.0125 28.652C72.8685 27.4787 72.2965 25.8067 72.2965 23.636V12.372C71.9152 12.3427 71.5045 12.328 71.0645 12.328C70.6539 12.328 70.1992 12.3427 69.7005 12.372C69.7005 12.0493 69.7592 11.6533 69.8765 11.184C72.0179 10.2747 73.8805 9.732 75.4645 9.556V23.372C75.4645 24.8093 75.8019 25.9387 76.4765 26.76C77.1805 27.5813 78.0899 27.992 79.2045 27.992C80.3192 27.992 81.3752 27.6107 82.3725 26.848C83.3992 26.056 84.2792 24.9413 85.0125 23.504V13.78C85.0125 12.4013 84.6019 11.448 83.7805 10.92C83.8392 10.5973 83.9125 10.3773 84.0005 10.26C85.0859 9.79067 86.3765 9.556 87.8725 9.556C88.0192 9.556 88.1805 9.556 88.3565 9.556C88.2392 10.612 88.1805 11.9027 88.1805 13.428Z" fill="white"/>
<path d="M111.996 15.892V27.904C112.935 28.256 113.962 28.476 115.076 28.564C115.076 28.9747 115.047 29.4147 114.988 29.884H106.012C105.983 29.532 105.998 29.092 106.056 28.564C107.112 28.4467 107.831 28.2413 108.212 27.948C108.623 27.6547 108.828 27.1413 108.828 26.408V16.156C108.828 14.7187 108.491 13.6187 107.816 12.856C107.142 12.0933 106.203 11.712 105 11.712C102.448 11.712 100.542 13.2373 99.2802 16.288V27.904C100.102 28.256 101.099 28.476 102.272 28.564C102.272 29.092 102.228 29.532 102.14 29.884H93.1202C93.0615 29.444 93.0909 29.004 93.2082 28.564C94.2935 28.4467 95.0415 28.2413 95.4522 27.948C95.8922 27.6547 96.1122 27.1413 96.1122 26.408V12.416C95.2615 12.3867 94.6015 12.372 94.1322 12.372C93.6629 12.372 93.2962 12.372 93.0322 12.372C93.0322 12.02 93.0909 11.6387 93.2082 11.228C95.1442 10.4653 97.0509 9.92267 98.9282 9.6C99.1042 10.7147 99.2215 12.152 99.2802 13.912C100.776 10.8613 103.05 9.336 106.1 9.336C107.831 9.336 109.239 9.89333 110.324 11.008C111.439 12.1227 111.996 13.7507 111.996 15.892Z" fill="white"/>
<path d="M133.424 27.2C131.136 29.3413 128.673 30.412 126.033 30.412C123.422 30.412 121.237 29.488 119.477 27.64C117.746 25.7627 116.881 23.2547 116.881 20.116C116.881 16.948 117.834 14.3667 119.741 12.372C121.647 10.348 124.097 9.336 127.089 9.336C129.435 9.336 131.415 9.908 133.029 11.052C133.029 12.5773 132.896 14.1613 132.632 15.804L131.709 15.672C131.709 14.264 131.254 13.164 130.344 12.372C129.435 11.5507 128.262 11.14 126.825 11.14C124.859 11.14 123.275 11.932 122.073 13.516C120.899 15.0707 120.312 17.168 120.312 19.808C120.312 22.448 120.885 24.5307 122.029 26.056C123.202 27.5813 124.771 28.344 126.737 28.344C128.702 28.344 130.741 27.728 132.853 26.496L133.424 27.2Z" fill="white"/>
<path d="M142.903 30.412C141.495 30.412 140.322 29.9867 139.383 29.136C138.474 28.256 138.019 26.9507 138.019 25.22V11.932C137.198 11.8147 136.244 11.756 135.159 11.756C135.159 11.668 135.159 11.5507 135.159 11.404C135.159 11.228 135.174 11.0373 135.203 10.832C136.23 10.48 137.168 10.2453 138.019 10.128L140.527 4.672L141.231 4.892V10.128C143.46 10.0693 145.514 9.96667 147.391 9.82C147.391 10.612 147.274 11.3013 147.039 11.888H141.231V24.78C141.231 26.8627 142.082 27.904 143.783 27.904C145.22 27.904 146.599 27.3613 147.919 26.276L148.447 26.848C146.892 29.224 145.044 30.412 142.903 30.412Z" fill="white"/>
<path d="M167.798 13.428V27.288C169.03 27.3467 169.983 27.376 170.658 27.376C170.687 27.6987 170.702 27.948 170.702 28.124C170.702 28.3 170.702 28.432 170.702 28.52C169.03 29.3413 167.138 29.8693 165.026 30.104C164.82 29.0187 164.688 27.5227 164.63 25.616C162.84 28.8133 160.582 30.412 157.854 30.412C156.182 30.412 154.774 29.8253 153.63 28.652C152.486 27.4787 151.914 25.8067 151.914 23.636V12.372C151.532 12.3427 151.122 12.328 150.682 12.328C150.271 12.328 149.816 12.3427 149.318 12.372C149.318 12.0493 149.376 11.6533 149.494 11.184C151.635 10.2747 153.498 9.732 155.082 9.556V23.372C155.082 24.8093 155.419 25.9387 156.094 26.76C156.798 27.5813 157.707 27.992 158.822 27.992C159.936 27.992 160.992 27.6107 161.99 26.848C163.016 26.056 163.896 24.9413 164.63 23.504V13.78C164.63 12.4013 164.219 11.448 163.398 10.92C163.456 10.5973 163.53 10.3773 163.618 10.26C164.703 9.79067 165.994 9.556 167.49 9.556C167.636 9.556 167.798 9.556 167.974 9.556C167.856 10.612 167.798 11.9027 167.798 13.428Z" fill="white"/>
<path d="M178.897 15.1V15.408C179.601 13.5893 180.657 12.1227 182.065 11.008C183.473 9.89333 184.984 9.336 186.597 9.336C186.744 9.688 186.817 10.128 186.817 10.656C186.817 11.1547 186.715 11.756 186.509 12.46C184.075 12.46 182.08 13.2667 180.525 14.88C179.645 15.848 179.103 17.0507 178.897 18.488V27.64C180.217 28.168 181.757 28.476 183.517 28.564C183.517 29.1213 183.459 29.5613 183.341 29.884H172.737C172.708 29.532 172.723 29.092 172.781 28.564C173.896 28.4173 174.659 28.1973 175.069 27.904C175.509 27.6107 175.729 27.0973 175.729 26.364V12.416C174.879 12.3867 174.219 12.372 173.749 12.372C173.28 12.372 172.913 12.372 172.649 12.372C172.649 12.02 172.708 11.6387 172.825 11.228C174.761 10.4653 176.668 9.92267 178.545 9.6C178.78 11.096 178.897 12.9293 178.897 15.1Z" fill="white"/>
<path d="M201.505 16.684C201.476 14.7773 201.021 13.3693 200.141 12.46C199.261 11.5507 198.19 11.096 196.929 11.096C195.697 11.096 194.538 11.5947 193.453 12.592C192.368 13.5893 191.664 15.0853 191.341 17.08L196.445 16.728L201.505 16.684ZM191.121 19.544C191.121 22.272 191.678 24.384 192.793 25.88C193.937 27.3467 195.594 28.08 197.765 28.08C199.936 28.08 202.077 27.376 204.189 25.968L204.585 26.76C202.444 29.1947 199.818 30.412 196.709 30.412C194.509 30.412 192.514 29.6053 190.725 27.992C189.816 27.1707 189.082 26.1 188.525 24.78C187.997 23.4307 187.733 21.92 187.733 20.248C187.733 16.816 188.73 14.1467 190.725 12.24C192.72 10.304 194.861 9.336 197.149 9.336C199.437 9.336 201.285 10.0693 202.693 11.536C204.13 12.9733 204.849 15.0413 204.849 17.74C204.673 18.0627 204.512 18.3267 204.365 18.532H191.165C191.136 18.7373 191.121 19.0747 191.121 19.544Z" fill="white"/>
<path fill-rule="evenodd" clip-rule="evenodd" d="M19.715 0H0V60.0018H41.1441V0H28.2866L28.2866 47.1443L6.19546e-05 47.1443L6.23293e-05 38.5726H19.715L19.715 0Z" fill="white"/>
<rect x="220" y="7.03992" width="63" height="26" fill="#FF0000"/>
<path d="M230.785 26.0399V13.243H234.969C236.357 13.243 237.4 13.5302 238.098 14.1044C238.801 14.6786 239.152 15.5282 239.152 16.6532C239.152 17.2509 238.982 17.7811 238.643 18.244C238.303 18.701 237.84 19.0555 237.254 19.3075C237.945 19.5009 238.49 19.87 238.889 20.4149C239.293 20.954 239.495 21.5985 239.495 22.3485C239.495 23.4969 239.123 24.3993 238.379 25.0555C237.635 25.7118 236.583 26.0399 235.224 26.0399H230.785ZM232.473 20.0546V24.66H235.259C236.044 24.66 236.662 24.4579 237.113 24.0536C237.57 23.6434 237.799 23.0809 237.799 22.3661C237.799 20.8251 236.961 20.0546 235.285 20.0546H232.473ZM232.473 18.701H235.021C235.76 18.701 236.349 18.5165 236.788 18.1473C237.233 17.7782 237.456 17.2772 237.456 16.6444C237.456 15.9413 237.251 15.4315 236.841 15.1151C236.431 14.7928 235.807 14.6317 234.969 14.6317H232.473V18.701ZM249.233 20.1249H243.688V24.66H250.13V26.0399H242V13.243H250.042V14.6317H243.688V18.745H249.233V20.1249ZM261.248 14.6317H257.135V26.0399H255.456V14.6317H251.352V13.243H261.248V14.6317ZM269.51 22.7001H264.148L262.944 26.0399H261.204L266.091 13.243H267.567L272.463 26.0399H270.731L269.51 22.7001ZM264.658 21.3114H269.009L266.829 15.326L264.658 21.3114Z" fill="white"/>
<path d="M60.127 58V49.3516H58.5537V48.4902H60.127V47.3389C60.127 46.3662 60.373 45.6191 60.8652 45.0977C61.3633 44.5762 62.0547 44.3154 62.9395 44.3154C63.3379 44.3154 63.71 44.3652 64.0557 44.4648L63.9766 45.3438C63.6836 45.2734 63.3643 45.2383 63.0186 45.2383C62.4385 45.2383 61.9873 45.4199 61.665 45.7832C61.3428 46.1406 61.1816 46.6504 61.1816 47.3125V48.4902H63.4492V49.3516H61.1816V58H60.127Z" fill="white"/>
<path d="M69.7246 49.3867C69.502 49.3457 69.2646 49.3252 69.0127 49.3252C68.3564 49.3252 67.7998 49.5098 67.3428 49.8789C66.8916 50.2422 66.5693 50.7725 66.376 51.4697V58H65.3301V48.4902H66.3584L66.376 50.002C66.9326 48.877 67.8262 48.3145 69.0566 48.3145C69.3496 48.3145 69.5811 48.3525 69.751 48.4287L69.7246 49.3867Z" fill="white"/>
<path d="M70.6387 53.1045C70.6387 52.1904 70.8145 51.3672 71.166 50.6348C71.5234 49.9023 72.0244 49.334 72.6689 48.9297C73.3193 48.5195 74.0547 48.3145 74.875 48.3145C76.1406 48.3145 77.166 48.7598 77.9512 49.6504C78.7363 50.5352 79.1289 51.71 79.1289 53.1748V53.3945C79.1289 54.3145 78.9502 55.1436 78.5928 55.8818C78.2412 56.6143 77.7432 57.1797 77.0986 57.5781C76.4541 57.9766 75.7188 58.1758 74.8926 58.1758C73.6328 58.1758 72.6074 57.7334 71.8164 56.8486C71.0312 55.958 70.6387 54.7803 70.6387 53.3154V53.1045ZM71.6934 53.3945C71.6934 54.5312 71.9863 55.4658 72.5723 56.1982C73.1641 56.9248 73.9375 57.2881 74.8926 57.2881C75.8418 57.2881 76.6094 56.9248 77.1953 56.1982C77.7871 55.4658 78.083 54.502 78.083 53.3066V53.1045C78.083 52.3779 77.9482 51.7129 77.6787 51.1094C77.4092 50.5059 77.0312 50.04 76.5449 49.7119C76.0586 49.3779 75.502 49.2109 74.875 49.2109C73.9375 49.2109 73.1729 49.5801 72.5811 50.3184C71.9893 51.0508 71.6934 52.0117 71.6934 53.2012V53.3945Z" fill="white"/>
<path d="M82.2666 48.4902L82.3018 50.0371C82.6533 49.4629 83.0928 49.0322 83.6201 48.7451C84.1475 48.458 84.7334 48.3145 85.3779 48.3145C86.8779 48.3145 87.8301 48.9297 88.2344 50.1602C88.5742 49.5684 89.0283 49.1143 89.5967 48.7979C90.165 48.4756 90.792 48.3145 91.4775 48.3145C93.5166 48.3145 94.5566 49.4277 94.5977 51.6543V58H93.543V51.7334C93.5371 50.8838 93.3525 50.2539 92.9893 49.8438C92.6318 49.4336 92.0459 49.2285 91.2314 49.2285C90.4756 49.2402 89.8369 49.4863 89.3154 49.9668C88.7939 50.4414 88.5039 51.0215 88.4453 51.707V58H87.3906V51.6543C87.3848 50.8398 87.1914 50.2334 86.8105 49.835C86.4355 49.4307 85.8555 49.2285 85.0703 49.2285C84.4082 49.2285 83.8398 49.4189 83.3652 49.7998C82.8906 50.1748 82.5391 50.7344 82.3105 51.4785V58H81.2559V48.4902H82.2666Z" fill="white"/>
<path d="M107.544 45.2031H108.634V54.1943C108.634 55.4072 108.282 56.374 107.579 57.0947C106.882 57.8154 105.944 58.1758 104.767 58.1758C103.524 58.1758 102.569 57.8506 101.901 57.2002C101.233 56.5498 100.899 55.6416 100.899 54.4756H101.98C101.98 55.4014 102.224 56.0986 102.71 56.5674C103.196 57.0303 103.882 57.2617 104.767 57.2617C105.581 57.2617 106.243 56.9922 106.753 56.4531C107.269 55.9141 107.532 55.1816 107.544 54.2559V45.2031Z" fill="white"/>
<path d="M119.049 54.8535C119.049 54.1445 118.8 53.585 118.302 53.1748C117.804 52.7588 116.893 52.3662 115.568 51.9971C114.244 51.6221 113.277 51.2148 112.668 50.7754C111.801 50.1543 111.367 49.3398 111.367 48.332C111.367 47.3535 111.769 46.5596 112.571 45.9502C113.38 45.335 114.411 45.0273 115.665 45.0273C116.515 45.0273 117.273 45.1914 117.941 45.5195C118.615 45.8477 119.137 46.3047 119.506 46.8906C119.875 47.4766 120.06 48.1299 120.06 48.8506H118.97C118.97 47.9775 118.671 47.2773 118.073 46.75C117.476 46.2168 116.673 45.9502 115.665 45.9502C114.687 45.9502 113.907 46.1699 113.327 46.6094C112.747 47.043 112.457 47.6113 112.457 48.3145C112.457 48.9648 112.718 49.4951 113.239 49.9053C113.761 50.3154 114.596 50.6787 115.744 50.9951C116.893 51.3057 117.763 51.6309 118.354 51.9707C118.946 52.3047 119.392 52.7061 119.69 53.1748C119.989 53.6436 120.139 54.1973 120.139 54.8359C120.139 55.8438 119.734 56.6523 118.926 57.2617C118.123 57.8711 117.062 58.1758 115.744 58.1758C114.842 58.1758 114.013 58.0146 113.257 57.6924C112.507 57.3701 111.936 56.9189 111.543 56.3389C111.156 55.7588 110.963 55.0938 110.963 54.3438H112.044C112.044 55.2461 112.381 55.958 113.055 56.4795C113.729 57.001 114.625 57.2617 115.744 57.2617C116.74 57.2617 117.54 57.042 118.144 56.6025C118.747 56.1631 119.049 55.5801 119.049 54.8535Z" fill="white"/>
<path d="M131.16 46.126H126.774V58H125.693V46.126H121.316V45.2031H131.16V46.126Z" fill="white"/>
<path d="M142.445 52.2959C142.445 53.4736 142.24 54.5078 141.83 55.3984C141.426 56.2891 140.846 56.9746 140.09 57.4551C139.334 57.9355 138.461 58.1758 137.471 58.1758C135.977 58.1758 134.77 57.6426 133.85 56.5762C132.93 55.5039 132.47 54.0596 132.47 52.2432V50.9248C132.47 49.7588 132.675 48.7275 133.085 47.8311C133.501 46.9287 134.087 46.2373 134.843 45.7568C135.599 45.2705 136.469 45.0273 137.453 45.0273C138.438 45.0273 139.305 45.2646 140.055 45.7393C140.811 46.2139 141.394 46.8848 141.804 47.752C142.214 48.6191 142.428 49.624 142.445 50.7666V52.2959ZM141.364 50.9072C141.364 49.3662 141.016 48.1592 140.318 47.2861C139.621 46.4131 138.666 45.9766 137.453 45.9766C136.264 45.9766 135.314 46.416 134.605 47.2949C133.902 48.168 133.551 49.3896 133.551 50.96V52.2959C133.551 53.8135 133.902 55.0176 134.605 55.9082C135.309 56.793 136.264 57.2354 137.471 57.2354C138.695 57.2354 139.65 56.7988 140.336 55.9258C141.021 55.0469 141.364 53.8252 141.364 52.2607V50.9072Z" fill="white"/>
<path d="M149.951 52.6738H146.233V58H145.144V45.2031H149.301C150.666 45.2031 151.732 45.5342 152.5 46.1963C153.268 46.8584 153.651 47.7842 153.651 48.9736C153.651 49.7939 153.411 50.5176 152.931 51.1445C152.45 51.7715 151.806 52.2051 150.997 52.4453L154.196 57.8857V58H153.045L149.951 52.6738ZM146.233 51.751H149.547C150.455 51.751 151.185 51.4932 151.735 50.9775C152.286 50.4619 152.562 49.7939 152.562 48.9736C152.562 48.0713 152.274 47.3711 151.7 46.873C151.126 46.375 150.32 46.126 149.283 46.126H146.233V51.751Z" fill="white"/>
<path d="M162.062 57.0859H168.382V58H160.973V45.2031H162.062V57.0859Z" fill="white"/>
<path d="M176.222 58C176.116 57.7012 176.049 57.2588 176.02 56.6729C175.65 57.1533 175.179 57.5254 174.604 57.7891C174.036 58.0469 173.433 58.1758 172.794 58.1758C171.88 58.1758 171.139 57.9209 170.57 57.4111C170.008 56.9014 169.727 56.2568 169.727 55.4775C169.727 54.5518 170.11 53.8193 170.878 53.2803C171.651 52.7412 172.727 52.4717 174.104 52.4717H176.011V51.3906C176.011 50.7109 175.8 50.1777 175.378 49.791C174.962 49.3984 174.353 49.2021 173.55 49.2021C172.817 49.2021 172.211 49.3896 171.73 49.7646C171.25 50.1396 171.01 50.5908 171.01 51.1182L169.955 51.1094C169.955 50.3535 170.307 49.7002 171.01 49.1494C171.713 48.5928 172.577 48.3145 173.603 48.3145C174.663 48.3145 175.498 48.5811 176.107 49.1143C176.723 49.6416 177.039 50.3799 177.057 51.3291V55.8291C177.057 56.749 177.153 57.4375 177.347 57.8945V58H176.222ZM172.917 57.2441C173.62 57.2441 174.247 57.0742 174.798 56.7344C175.354 56.3945 175.759 55.9404 176.011 55.3721V53.2803H174.13C173.081 53.292 172.261 53.4854 171.669 53.8604C171.077 54.2295 170.781 54.7393 170.781 55.3896C170.781 55.9229 170.978 56.3652 171.37 56.7168C171.769 57.0684 172.284 57.2441 172.917 57.2441Z" fill="white"/>
<path d="M187.524 53.3418C187.524 54.8242 187.196 56.002 186.54 56.875C185.884 57.7422 185.002 58.1758 183.895 58.1758C182.57 58.1758 181.568 57.6836 180.889 56.6992L180.845 58H179.86V44.5H180.906V49.8701C181.574 48.833 182.564 48.3145 183.877 48.3145C185.002 48.3145 185.89 48.7451 186.54 49.6064C187.196 50.4619 187.524 51.6543 187.524 53.1836V53.3418ZM186.47 53.1572C186.47 51.9033 186.227 50.9365 185.74 50.2568C185.254 49.5713 184.568 49.2285 183.684 49.2285C183.01 49.2285 182.438 49.3955 181.97 49.7295C181.501 50.0576 181.146 50.541 180.906 51.1797V55.4688C181.434 56.6641 182.365 57.2617 183.701 57.2617C184.568 57.2617 185.245 56.9189 185.731 56.2334C186.224 55.5479 186.47 54.5225 186.47 53.1572Z" fill="white"/>
<path d="M195.549 55.583C195.549 55.0615 195.338 54.6426 194.916 54.3262C194.5 54.0098 193.87 53.7637 193.026 53.5879C192.183 53.4062 191.526 53.2012 191.058 52.9727C190.595 52.7383 190.249 52.4541 190.021 52.1201C189.798 51.7861 189.687 51.3818 189.687 50.9072C189.687 50.1572 190 49.5391 190.627 49.0527C191.254 48.5605 192.057 48.3145 193.035 48.3145C194.096 48.3145 194.945 48.5781 195.584 49.1055C196.229 49.627 196.551 50.3096 196.551 51.1533H195.496C195.496 50.5967 195.262 50.1338 194.793 49.7646C194.33 49.3955 193.744 49.2109 193.035 49.2109C192.344 49.2109 191.787 49.3662 191.365 49.6768C190.949 49.9814 190.741 50.3799 190.741 50.8721C190.741 51.3467 190.914 51.7158 191.26 51.9795C191.611 52.2373 192.247 52.4746 193.167 52.6914C194.093 52.9082 194.784 53.1396 195.241 53.3857C195.704 53.6318 196.047 53.9277 196.27 54.2734C196.492 54.6191 196.604 55.0381 196.604 55.5303C196.604 56.333 196.278 56.9746 195.628 57.4551C194.983 57.9355 194.14 58.1758 193.097 58.1758C191.989 58.1758 191.09 57.9092 190.398 57.376C189.713 56.8369 189.37 56.1572 189.37 55.3369H190.425C190.466 55.9521 190.724 56.4326 191.198 56.7783C191.679 57.1182 192.312 57.2881 193.097 57.2881C193.829 57.2881 194.421 57.127 194.872 56.8047C195.323 56.4824 195.549 56.0752 195.549 55.583Z" fill="white"/>
</svg>
